<svg xmlns="http://www.w3.org/2000/svg" width="106" height="25.3" viewBox="0 0 106 25.3"><defs><style>.cls-1{fill:#fff;}</style></defs><g id="Layer_2" data-name="Layer 2"><g id="Layer_3" data-name="Layer 3"><path class="cls-1" d="M1.9,3A1.87,1.87,0,0,1,.49,2.51,1.77,1.77,0,0,1,0,1.25,1.91,1.91,0,0,1,.06.82,1.62,1.62,0,0,1,.21.38a4,4,0,0,0,.88.11c.39,0,.84,0,1.36,0H5.1C6.08.53,7,.48,7.92.39S9.62.21,10.3.12,11.43,0,11.63,0a1.32,1.32,0,0,1,1.23.63,4.93,4.93,0,0,1,.56,1.68c-.4,0-.79-.07-1.18-.07H9.77a10.8,10.8,0,0,0-1.5.1c-.22.44-.45,1-.71,1.57S7,5.15,6.79,5.8s-.49,1.32-.72,2S5.64,9,5.47,9.52c-.33,1-.63,2-.88,2.8s-.47,1.66-.66,2.4-.36,1.45-.5,2.13-.25,1.33-.36,2A3.66,3.66,0,0,1,.5,16.9c.13-.47.27-1,.45-1.55s.38-1.19.62-1.9.51-1.51.83-2.41S3.09,9.11,3.5,8c.16-.43.32-.87.48-1.34s.34-.93.5-1.39.3-.9.43-1.32.24-.82.33-1.17c-.64.07-1.24.14-1.82.19A14.5,14.5,0,0,1,1.9,3Z"/><path class="cls-1" d="M14.33,1.74a5.2,5.2,0,0,1,.94-.45A10.92,10.92,0,0,1,16.56.92c.45-.11.92-.19,1.38-.26A9.91,9.91,0,0,1,19.19.57a4.21,4.21,0,0,1,1.6.27,3,3,0,0,1,1.08.68,2.65,2.65,0,0,1,.59,1,3.07,3.07,0,0,1,.19,1.08,3.88,3.88,0,0,1-.22,1.21,6.39,6.39,0,0,1-.63,1.29,8,8,0,0,1-1,1.24,7.92,7.92,0,0,1-1.29,1.09,3.49,3.49,0,0,1,2.2.92,2.75,2.75,0,0,1,.69,2A4.85,4.85,0,0,1,22,13.36,5.48,5.48,0,0,1,20.78,15a7.73,7.73,0,0,1-1.71,1.24,11.61,11.61,0,0,1-2,.84,12.39,12.39,0,0,1-2.17.49,17,17,0,0,1-2.08.14,1.92,1.92,0,0,1-1.28-.89,3.26,3.26,0,0,1-.44-1.74c0-.05,0-.09,0-.14a.7.7,0,0,0,0-.16,5.83,5.83,0,0,0,1.83.23,12.89,12.89,0,0,0,2.52-.27A11.71,11.71,0,0,0,18,14a6.27,6.27,0,0,0,1.9-1.31,2.5,2.5,0,0,0,.76-1.81,1.7,1.7,0,0,0-.49-1.25A2.75,2.75,0,0,0,18.57,9a5.38,5.38,0,0,1-1.32.59,4.14,4.14,0,0,1-.95.17,1.1,1.1,0,0,1-.89-.46A2.23,2.23,0,0,1,15,7.85a11.45,11.45,0,0,0,2.19-.22,7.09,7.09,0,0,0,2.12-.79A5.09,5.09,0,0,0,21,5.35,4.19,4.19,0,0,0,21.66,3a.91.91,0,0,0-.54-.66,2.25,2.25,0,0,0-1-.21,5,5,0,0,0-1.21.16,8.36,8.36,0,0,0-1.3.45,8.49,8.49,0,0,0-1.26.68,6.1,6.1,0,0,0-1,.86,1.79,1.79,0,0,1-.72-.83,3,3,0,0,1-.27-1.3V2A1.83,1.83,0,0,1,14.33,1.74Z"/><path class="cls-1" d="M31.53,18.64a6,6,0,0,1-1.76-.74,1.17,1.17,0,0,1-.46-1A8.52,8.52,0,0,1,29.63,15c.21-.83.49-1.76.84-2.78s.73-2.1,1.18-3.21S32.54,6.82,33,5.79s.9-1.95,1.34-2.8a16.51,16.51,0,0,1,1.15-2l-.16-1a3.48,3.48,0,0,1,.9.16A9.18,9.18,0,0,1,37.38.6a8.48,8.48,0,0,1,1,.46c.3.17.46.3.5.41a12.4,12.4,0,0,0-.19,1.66c0,.74-.07,1.53-.07,2.37,0,1.66.07,3.29.2,4.89a25.23,25.23,0,0,0,.9,4.86c.25-1.22.51-2.44.79-3.65s.58-2.37.88-3.48S42,6,42.34,5s.6-1.78.88-2.49A12.2,12.2,0,0,1,44,.88c.25-.4.47-.62.67-.65a2.12,2.12,0,0,1,.55.19,4.48,4.48,0,0,1,.57.36,3.64,3.64,0,0,1,.5.46,2.39,2.39,0,0,1,.37.5,3.45,3.45,0,0,0-1.46,1.4,16.48,16.48,0,0,0-1.37,2.67,33.47,33.47,0,0,0-1.21,3.4q-.57,1.83-1,3.6c-.28,1.19-.5,2.28-.66,3.29a20.44,20.44,0,0,0-.27,2.43.06.06,0,0,0,0,.06.4.4,0,0,1-.15,0h-.15a5.94,5.94,0,0,1-1.87-.27,1.7,1.7,0,0,1-1.06-.74c-.32-1.28-.59-2.52-.8-3.71s-.4-2.38-.54-3.57-.26-2.4-.34-3.61-.15-2.48-.2-3.81a14.71,14.71,0,0,0-.92,1.8q-.48,1.11-.93,2.43c-.31.89-.6,1.82-.89,2.8s-.53,1.93-.74,2.86-.38,1.81-.5,2.65a14.15,14.15,0,0,0-.19,2.16c0,.32,0,.55,0,.69A1.49,1.49,0,0,0,31.53,18.64Z"/><path class="cls-1" d="M52.62,7.42a8,8,0,0,1-.5,2.44,5.38,5.38,0,0,1-1.18,1.78A8.06,8.06,0,0,1,49.07,13a20.66,20.66,0,0,1-2.56,1.19c0,.09,0,.19,0,.29s0,.2,0,.31a4.35,4.35,0,0,0,0,.61,2.2,2.2,0,0,0,.16.6,1.23,1.23,0,0,0,.32.45.82.82,0,0,0,.53.17,2.75,2.75,0,0,0,1.21-.28,6.55,6.55,0,0,0,1.14-.67,10.39,10.39,0,0,0,1-.87l.84-.86q.23.21.39.39a11.37,11.37,0,0,1-2.26,2.28,6.42,6.42,0,0,1-2.32,1.15,3.78,3.78,0,0,1-2.46-1.15,3.36,3.36,0,0,1-.88-2.35,7.08,7.08,0,0,1,.26-1.91,9.15,9.15,0,0,1,.73-1.88,11.05,11.05,0,0,1,1.1-1.71A8.92,8.92,0,0,1,47.64,7.4a6.5,6.5,0,0,1,1.49-.94,3.69,3.69,0,0,1,1.52-.35A3.12,3.12,0,0,1,52.62,7.42ZM51,8.17a3.46,3.46,0,0,0-1.28.51,5.29,5.29,0,0,0-1.25,1.1,8.71,8.71,0,0,0-1.06,1.6,9.15,9.15,0,0,0-.76,2,10.15,10.15,0,0,0,3.05-2.26A4.65,4.65,0,0,0,51,8.17Z"/><path class="cls-1" d="M53.88,16c0-.3,0-.73.1-1.28s.16-1.15.28-1.79.24-1.29.39-2,.29-1.27.44-1.81A3.51,3.51,0,0,1,56,7.45a2.21,2.21,0,0,1,1.57-.58,3.12,3.12,0,0,1,1,.16c.33.11.52.24.58.41A4.07,4.07,0,0,0,58.11,8.8a9.27,9.27,0,0,0-.64,1.74,13.43,13.43,0,0,0-.37,1.91c-.09.64-.17,1.25-.26,1.82.5-.68,1-1.28,1.43-1.82a12.53,12.53,0,0,1,1.2-1.3,5.21,5.21,0,0,0,1-1.11,6.63,6.63,0,0,0,.44-1q.14-.42.33-1a2.58,2.58,0,0,1,.65-1,1.75,1.75,0,0,1,.39,0,4.18,4.18,0,0,1,.49,0,2.22,2.22,0,0,1,.88.25.35.35,0,0,1,.19.23,4.8,4.8,0,0,0-.69,1.5c-.21.68-.4,1.42-.57,2.23s-.32,1.62-.46,2.42-.26,1.48-.37,2a2.81,2.81,0,0,0,.42-.36c.21-.22.45-.48.72-.8s.55-.67.84-1.06a12.17,12.17,0,0,0,.79-1.12,13.29,13.29,0,0,0,.73-1.25,10.69,10.69,0,0,0,.5-1.24c.14-.45.28-.94.4-1.48s.25-1.19.39-1.94a1.17,1.17,0,0,1,.61-.31A3.41,3.41,0,0,1,68,6.07a1,1,0,0,1,.51.11A11.11,11.11,0,0,1,68,8.47a9.85,9.85,0,0,1-.83,2,12.7,12.7,0,0,1-1.31,1.9c-.52.63-1.13,1.33-1.83,2.07l-.95,1c-.34.37-.68.71-1,1a9.79,9.79,0,0,1-.91.79,1.3,1.3,0,0,1-.65.32,1.1,1.1,0,0,1-.88-.41,1.65,1.65,0,0,1-.34-1.05,9.7,9.7,0,0,1,.06-1.16,8.51,8.51,0,0,1,.19-1c.09-.34.17-.62.22-.85s.1-.43.14-.6S60,12.12,60,12s0-.24,0-.37a2.33,2.33,0,0,0-.48.38c-.2.19-.4.41-.62.66l-.64.77c-.21.26-.39.48-.52.67-.29.39-.54.74-.76,1.05l-.61.87c-.19.27-.37.55-.56.84s-.39.58-.64.9a1.84,1.84,0,0,1-1-.69A1.92,1.92,0,0,1,53.88,16Z"/><path class="cls-1" d="M74.79,18.64A5,5,0,0,1,73.27,18a1,1,0,0,1-.43-.8,3.77,3.77,0,0,1,.21-1c.14-.44.34-1,.6-1.57s.59-1.27,1-2,.79-1.53,1.27-2.37H74.06a1.24,1.24,0,0,1,.77-.59,8.78,8.78,0,0,1,1.7-.44,31.44,31.44,0,0,1,1.91-2.85c.68-.9,1.36-1.73,2-2.49a20.16,20.16,0,0,1,2.06-2,12.41,12.41,0,0,1,2-1.37,1.48,1.48,0,0,0,0-.27c0-.08,0-.13,0-.16a3,3,0,0,1,.85.16A7.13,7.13,0,0,1,86.48.6a7.69,7.69,0,0,1,.91.46c.27.17.42.3.45.41a18.48,18.48,0,0,0-1.49,4,46.18,46.18,0,0,0-1.21,6.33c-.08.61-.14,1.31-.2,2.08s-.08,1.65-.08,2.62v1c0,.35,0,.71,0,1.09a.16.16,0,0,1-.09,0h-.19a3.7,3.7,0,0,1-.74-.1,7.1,7.1,0,0,1-.82-.25,3.71,3.71,0,0,1-.69-.33,1.07,1.07,0,0,1-.36-.31c0-.2,0-.39,0-.58v-.6c0-.93,0-1.88.1-2.84s.19-1.95.36-3a1.38,1.38,0,0,0-.85-.24h-4c-.36.67-.71,1.35-1,2a18.19,18.19,0,0,0-.82,2,17.24,17.24,0,0,0-.63,2.17A13.38,13.38,0,0,0,74.79,18.64ZM83.63,4.89c.06-.22.13-.51.21-.89s.17-.77.25-1.18a4.63,4.63,0,0,0-1.28.75,13.75,13.75,0,0,0-1.44,1.37c-.49.54-1,1.15-1.51,1.83s-1,1.41-1.48,2.17c1.29-.13,2.74-.19,4.38-.19.12-.65.25-1.29.4-1.92S83.46,5.54,83.63,4.89Z"/><path class="cls-1" d="M82.87,23.72a.4.4,0,0,1,.09-.25l.21-.23a4.18,4.18,0,0,0,.83.62,1.27,1.27,0,0,0,.36.12l.44,0a4.41,4.41,0,0,0,2.26-.63,7.43,7.43,0,0,0,2-1.82,14,14,0,0,0,1.73-2.91,26.63,26.63,0,0,0,1.37-3.89c-.18.18-.41.38-.67.6a8.36,8.36,0,0,1-.84.63c-.29.2-.58.39-.86.55a5,5,0,0,1-.72.37,1.69,1.69,0,0,1-.72-.33,2.9,2.9,0,0,1-.59-.66,3.2,3.2,0,0,1-.38-.88,3.49,3.49,0,0,1-.14-1,5.54,5.54,0,0,1,.33-1.83,10,10,0,0,1,.88-1.84,10.15,10.15,0,0,1,1.3-1.71,10.36,10.36,0,0,1,1.58-1.4,8.94,8.94,0,0,1,1.69-1,4.48,4.48,0,0,1,1.68-.35,1.88,1.88,0,0,1,1.21.33,2,2,0,0,1,.58,1.13,1.35,1.35,0,0,0-.64-.13,2.52,2.52,0,0,0-1.27.43A9.35,9.35,0,0,0,93.14,8.8a16.82,16.82,0,0,0-2.77,3.45,13,13,0,0,0-.91,1.83,4.37,4.37,0,0,0-.36,1.61.61.61,0,0,0,0,.19.09.09,0,0,0,.07,0,1.12,1.12,0,0,0,.56-.22,9.45,9.45,0,0,0,.8-.59,10.94,10.94,0,0,0,.93-.82c.32-.32.63-.63.92-.95a17.71,17.71,0,0,0,1.8-2.46,16.47,16.47,0,0,0,1.29-2.65,4.39,4.39,0,0,1,1.1.21,1.65,1.65,0,0,1,.66.34c-.52,1.19-.93,2.19-1.25,3s-.58,1.53-.81,2.15c-.41,1.1-.8,2.11-1.15,3s-.73,1.75-1.1,2.52a20.24,20.24,0,0,1-1.22,2.16,16.48,16.48,0,0,1-1.47,1.91,4.64,4.64,0,0,1-.89.76,5.74,5.74,0,0,1-2,.91,3.82,3.82,0,0,1-.91.11,5.48,5.48,0,0,1-1.12-.12,5.73,5.73,0,0,1-1.06-.35,3.74,3.74,0,0,1-.86-.5A1.75,1.75,0,0,1,82.87,23.72Z"/><path class="cls-1" d="M106,7.42a8,8,0,0,1-.5,2.44,5.38,5.38,0,0,1-1.18,1.78A8.27,8.27,0,0,1,102.45,13a20.66,20.66,0,0,1-2.56,1.19c0,.09,0,.19,0,.29s0,.2,0,.31a4.42,4.42,0,0,0,0,.61,2.2,2.2,0,0,0,.16.6,1.12,1.12,0,0,0,.32.45.82.82,0,0,0,.53.17,2.78,2.78,0,0,0,1.21-.28,6.46,6.46,0,0,0,1.13-.67,9.42,9.42,0,0,0,1-.87l.84-.86q.23.21.39.39a11.37,11.37,0,0,1-2.26,2.28,6.5,6.5,0,0,1-2.32,1.15,3.81,3.81,0,0,1-2.47-1.15,3.41,3.41,0,0,1-.88-2.35,7.1,7.1,0,0,1,.27-1.91,9.15,9.15,0,0,1,.73-1.88,11.05,11.05,0,0,1,1.1-1.71A8.92,8.92,0,0,1,101,7.4a6.5,6.5,0,0,1,1.49-.94A3.69,3.69,0,0,1,104,6.11,3.12,3.12,0,0,1,106,7.42Zm-1.58.75a3.46,3.46,0,0,0-1.28.51,5.1,5.1,0,0,0-1.25,1.1,9.28,9.28,0,0,0-1.07,1.6,9.12,9.12,0,0,0-.75,2,10,10,0,0,0,3-2.26A4.66,4.66,0,0,0,104.42,8.17Z"/></g></g></svg>